<svg xmlns="http://www.w3.org/2000/svg" viewBox="0 0 1600 900" preserveAspectRatio="xMidYMid slice">
  <defs>
    <linearGradient id="bg" x1="0" y1="0" x2="1" y2="1">
      <stop offset="0%" stop-color="#0b1b12"/>
      <stop offset="45%" stop-color="#1e2b1b"/>
      <stop offset="100%" stop-color="#13170f"/>
    </linearGradient>
    <linearGradient id="waveA" x1="0" y1="0" x2="1" y2="0">
      <stop offset="0%" stop-color="#10b981" stop-opacity="0.30"/>
      <stop offset="100%" stop-color="#34d399" stop-opacity="0.20"/>
    </linearGradient>
    <linearGradient id="waveB" x1="0" y1="0" x2="1" y2="0">
      <stop offset="0%" stop-color="#10b981" stop-opacity="0.22"/>
      <stop offset="100%" stop-color="#34d399" stop-opacity="0.14"/>
    </linearGradient>
    <radialGradient id="glow" cx="50%" cy="30%" r="70%">
      <stop offset="0%" stop-color="#10b981" stop-opacity="0.20"/>
      <stop offset="100%" stop-color="#10b981" stop-opacity="0"/>
    </radialGradient>
  </defs>
  <rect width="1600" height="900" fill="url(#bg)"/>
  <ellipse cx="800" cy="260" rx="760" ry="280" fill="url(#glow)"/>
  <path d="M0 520C160 470 300 480 470 530C680 595 860 605 1060 550C1230 500 1400 500 1600 560V900H0Z" fill="url(#waveA)"/>
  <path d="M0 610C190 560 370 570 560 640C760 710 940 715 1120 665C1290 620 1450 620 1600 665V900H0Z" fill="url(#waveB)"/>
  <g stroke="#e2e8f0" stroke-opacity="0.14" stroke-width="1">
    <path d="M0 220C200 180 390 190 590 240C800 295 1010 295 1210 250C1360 215 1480 220 1600 245"/>
    <path d="M0 280C220 245 420 255 620 305C820 355 1020 355 1240 315C1380 290 1500 290 1600 308"/>
    <path d="M0 340C220 305 420 315 620 365C820 415 1020 415 1240 375C1380 350 1500 350 1600 368"/>
  </g>
</svg>
